SplineFontDB: 3.2
FontName: KalimbaNotationJ
FullName: KalimbaNotationJ
FamilyName: KalimbaNotationJ
Weight: Regular
Copyright: Copyright (c) 2022, Yuichiro Nakata
UComments: "2022-5-12: Created with FontForge (http://fontforge.org)"
Version: 001.000
ItalicAngle: 0
UnderlinePosition: -102
UnderlineWidth: 51
Ascent: 819
Descent: 205
InvalidEm: 0
LayerCount: 2
Layer: 0 0 "+gMyXYgAA" 1
Layer: 1 0 "+Uk2XYgAA" 0
XUID: [1021 882 799115803 17396]
OS2Version: 0
OS2_WeightWidthSlopeOnly: 0
OS2_UseTypoMetrics: 1
CreationTime: 1652340148
ModificationTime: 1659622022
OS2TypoAscent: 0
OS2TypoAOffset: 1
OS2TypoDescent: 0
OS2TypoDOffset: 1
OS2TypoLinegap: 0
OS2WinAscent: 0
OS2WinAOffset: 1
OS2WinDescent: 0
OS2WinDOffset: 1
HheadAscent: 0
HheadAOffset: 1
HheadDescent: 0
HheadDOffset: 1
OS2Vendor: 'PfEd'
MarkAttachClasses: 1
DEI: 91125
Encoding: ISO8859-1
UnicodeInterp: none
NameList: AGL For New Fonts
DisplaySize: -48
AntiAlias: 1
FitToEm: 0
WinInfo: 20 20 6
BeginPrivate: 0
EndPrivate
BeginChars: 256 22

StartChar: c
Encoding: 99 99 0
Width: 1000
VWidth: 1000
Flags: HW
LayerCount: 2
Fore
SplineSet
748.5 593 m 5
 748.5 730 l 5
 889.5 730 l 5
 889.5 593 l 5
 748.5 593 l 5
405 702 m 5
 453.75 736 l 5
 479.25 680 504.75 620 530.25 556 c 5
 481.5 524 l 5
 461.500976562 574 436.000976562 633.333007812 405 702 c 5
516 744 m 5
 564.75 779 l 5
 592.750976562 718.333007812 619.000976562 657.666992188 643.5 597 c 5
 594 564 l 5
 573 616 547.000976562 676 516 744 c 5
237.75 757 m 5
 237.75 465 l 5
 375.75 421 515.500976562 363.666992188 657 293 c 5
 638.25 220 l 5
 495.250976562 291.333007812 361.750976562 347 237.75 387 c 5
 237.75 -57 l 5
 177.75 -57 l 5
 177.75 757 l 5
 237.75 757 l 5
EndSplineSet
EndChar

StartChar: e
Encoding: 101 101 1
Width: 1000
VWidth: 1000
Flags: HW
LayerCount: 2
Fore
SplineSet
748.5 593 m 5
 748.5 730 l 5
 889.5 730 l 5
 889.5 593 l 5
 748.5 593 l 5
94.5 48 m 5
 97.5 126 l 5
 280.5 117.333007812 465.499023438 90.6669921875 652.5 46 c 5
 645 -32 l 5
 460.000976562 12.6669921875 276.499023438 39.3330078125 94.5 48 c 5
157.5 370 m 5
 161.25 448 l 5
 305.25 440 448.5 419.333007812 591 386 c 5
 582.75 308 l 5
 436.750976562 342 295.000976562 362.666992188 157.5 370 c 5
129.75 661 m 5
 132.75 737 l 5
 300.75 729.666992188 466.000976562 709.666992188 628.5 677 c 5
 621.75 601 l 5
 458.749023438 633 294.75 653 129.75 661 c 5
EndSplineSet
EndChar

StartChar: d
Encoding: 100 100 2
Width: 1000
VWidth: 1000
Flags: HW
LayerCount: 2
Fore
SplineSet
748.5 593 m 5
 748.5 730 l 5
 889.5 730 l 5
 889.5 593 l 5
 748.5 593 l 5
208.5 45 m 5
 315 53.6669921875 402.625976562 91.1669921875 471.375 157.5 c 132
 540.124023438 223.833007812 591.75 321 626.25 449 c 5
 679.5 421 l 5
 597.499023438 120.333007812 424.249023438 -30 159.75 -30 c 6
 147.75 -30 l 5
 147.75 743 l 5
 208.5 743 l 5
 208.5 45 l 5
EndSplineSet
EndChar

StartChar: f
Encoding: 102 102 3
Width: 1000
VWidth: 1000
Flags: HW
LayerCount: 2
Fore
SplineSet
748.5 593 m 5
 748.5 730 l 5
 889.5 730 l 5
 889.5 593 l 5
 748.5 593 l 5
413.4375 501 m 5
 413.4375 566 l 5
 681.328125 566 l 5
 681.328125 501 l 5
 674.578125 445 663.1171875 393.833007812 646.9453125 347.5 c 132
 630.7734375 301.166992188 611.296875 264.666992188 588.515625 238 c 5
 571.640625 295 l 5
 611.296875 343.666992188 637.03125 412.333007812 648.84375 501 c 5
 413.4375 501 l 5
432 23 m 5
 460.96875 52.3330078125 481.21875 96.6669921875 492.75 156 c 132
 504.28125 215.333007812 510.046875 306 510.046875 428 c 5
 540.84375 428 l 5
 540.84375 291.333007812 533.8828125 188.5 519.9609375 119.5 c 132
 506.0390625 50.5 481.78125 -1.6669921875 447.1875 -37 c 5
 432 23 l 5
54.84375 703 m 5
 368.296875 703 l 5
 368.296875 687 l 6
 368.296875 466.333007812 346.4296875 298.666992188 302.6953125 184 c 132
 258.9609375 69.3330078125 190.96875 0.3330078125 98.71875 -23 c 5
 93.234375 48 l 5
 173.390625 69.3330078125 232.734375 126.166992188 271.265625 218.5 c 132
 309.796875 310.833007812 330.75 448 334.125 630 c 5
 54.84375 630 l 5
 54.84375 703 l 5
EndSplineSet
EndChar

StartChar: g
Encoding: 103 103 4
Width: 1000
VWidth: 1000
Flags: HW
LayerCount: 2
Fore
SplineSet
748.5 593 m 5
 748.5 730 l 5
 889.5 730 l 5
 889.5 593 l 5
 748.5 593 l 5
662.25 734 m 5
 655.249023438 568.666992188 635.374023438 435.666992188 602.625 335 c 132
 569.875976562 234.333007812 520.750976562 156.166992188 455.25 100.5 c 132
 389.749023438 44.8330078125 301.249023438 4.6669921875 189.75 -20 c 5
 179.25 52 l 5
 281.25 76.6669921875 361.5 113.833007812 420 163.5 c 132
 478.5 213.166992188 522.375 283.333007812 551.625 374 c 132
 580.875 464.666992188 598.750976562 586.333007812 605.25 739 c 5
 662.25 734 l 5
89.25 695 m 5
 144.75 726 l 5
 187.750976562 606.666992188 226.5 493.333007812 261 386 c 5
 204 357 l 5
 162 486.333007812 123.75 599 89.25 695 c 5
EndSplineSet
EndChar

StartChar: C
Encoding: 67 67 5
Width: 1000
VWidth: 1000
Flags: HW
LayerCount: 2
Fore
SplineSet
486 702 m 5
 544.5 736 l 5
 575.099609375 680 605.700195312 620 636.299804688 556 c 5
 577.799804688 524 l 5
 553.80078125 574 523.200195312 633.333007812 486 702 c 5
619.200195312 744 m 5
 677.700195312 779 l 5
 711.30078125 718.333007812 742.80078125 657.666992188 772.200195312 597 c 5
 712.799804688 564 l 5
 687.599609375 616 656.400390625 676 619.200195312 744 c 5
285.299804688 757 m 5
 285.299804688 465 l 5
 450.900390625 421 618.600585938 363.666992188 788.400390625 293 c 5
 765.900390625 220 l 5
 594.30078125 291.333007812 434.100585938 347 285.299804688 387 c 5
 285.299804688 -57 l 5
 213.299804688 -57 l 5
 213.299804688 757 l 5
 285.299804688 757 l 5
EndSplineSet
EndChar

StartChar: D
Encoding: 68 68 6
Width: 1000
VWidth: 1000
Flags: HW
LayerCount: 2
Fore
SplineSet
250.200195312 45 m 5
 378 53.6669921875 483.150390625 91.1669921875 565.650390625 157.5 c 132
 648.149414062 223.833007812 710.099609375 321 751.5 449 c 5
 815.400390625 421 l 5
 716.999023438 120.333007812 509.099609375 -30 191.700195312 -30 c 6
 177.299804688 -30 l 5
 177.299804688 743 l 5
 250.200195312 743 l 5
 250.200195312 45 l 5
EndSplineSet
EndChar

StartChar: E
Encoding: 69 69 7
Width: 1000
VWidth: 1000
Flags: HW
LayerCount: 2
Fore
SplineSet
113.400390625 48 m 5
 117 126 l 5
 336.599609375 117.333007812 558.599609375 90.6669921875 783 46 c 5
 774 -32 l 5
 552.000976562 12.6669921875 331.799804688 39.3330078125 113.400390625 48 c 5
189 370 m 5
 193.5 448 l 5
 366.299804688 440 538.200195312 419.333007812 709.200195312 386 c 5
 699.299804688 308 l 5
 524.100585938 342 354.000976562 362.666992188 189 370 c 5
155.700195312 661 m 5
 159.299804688 737 l 5
 360.900390625 729.666992188 559.200195312 709.666992188 754.200195312 677 c 5
 746.099609375 601 l 5
 550.499023438 633 353.700195312 653 155.700195312 661 c 5
EndSplineSet
EndChar

StartChar: F
Encoding: 70 70 8
Width: 1000
VWidth: 1000
Flags: HW
LayerCount: 2
Fore
SplineSet
496.125 501 m 5
 496.125 566 l 5
 817.59375 566 l 5
 817.59375 501 l 5
 809.494140625 445 795.740234375 393.833007812 776.333984375 347.5 c 132
 756.927734375 301.166992188 733.556640625 264.666992188 706.21875 238 c 5
 685.96875 295 l 5
 733.556640625 343.666992188 764.4375 412.333007812 778.612304688 501 c 5
 496.125 501 l 5
518.400390625 23 m 5
 553.162109375 52.3330078125 577.462890625 96.6669921875 591.299804688 156 c 132
 605.137695312 215.333007812 612.056640625 306 612.056640625 428 c 5
 649.012695312 428 l 5
 649.012695312 291.333007812 640.659179688 188.5 623.953125 119.5 c 132
 607.247070312 50.5 578.137695312 -1.6669921875 536.625 -37 c 5
 518.400390625 23 l 5
65.8125 703 m 5
 441.956054688 703 l 5
 441.956054688 687 l 6
 441.956054688 466.333007812 415.715820312 298.666992188 363.234375 184 c 132
 310.752929688 69.3330078125 229.162109375 0.3330078125 118.462890625 -23 c 5
 111.880859375 48 l 5
 208.068359375 69.3330078125 279.28125 126.166992188 325.518554688 218.5 c 132
 371.755859375 310.833007812 396.900390625 448 400.950195312 630 c 5
 65.8125 630 l 5
 65.8125 703 l 5
EndSplineSet
EndChar

StartChar: G
Encoding: 71 71 9
Width: 1000
VWidth: 1000
Flags: HW
LayerCount: 2
Fore
SplineSet
794.700195312 734 m 1
 786.299804688 568.666992188 762.44921875 435.666992188 723.150390625 335 c 128
 683.850585938 234.333007812 624.900390625 156.166992188 546.299804688 100.5 c 128
 467.69921875 44.8330078125 361.499023438 4.6669921875 227.700195312 -20 c 1
 215.099609375 52 l 1
 337.5 76.6669921875 433.799804688 113.833007812 504 163.5 c 128
 574.200195312 213.166992188 626.849609375 283.333007812 661.950195312 374 c 128
 697.049804688 464.666992188 718.500976562 586.333007812 726.299804688 739 c 1
 794.700195312 734 l 1
107.099609375 695 m 1
 173.700195312 726 l 1
 225.30078125 606.666992188 271.799804688 493.333007812 313.200195312 386 c 1
 244.799804688 357 l 1
 194.400390625 486.333007812 148.5 599 107.099609375 695 c 1
EndSplineSet
EndChar

StartChar: H
Encoding: 72 72 10
Width: 1000
VWidth: 1000
Flags: HW
LayerCount: 2
Fore
SplineSet
748.5 0 m 5
 748.5 137 l 5
 889.5 137 l 5
 889.5 0 l 5
 748.5 0 l 5
413.4375 501 m 5
 413.4375 566 l 5
 681.328125 566 l 5
 681.328125 501 l 5
 674.578125 445 663.1171875 393.833007812 646.9453125 347.5 c 132
 630.7734375 301.166992188 611.296875 264.666992188 588.515625 238 c 5
 571.640625 295 l 5
 611.296875 343.666992188 637.03125 412.333007812 648.84375 501 c 5
 413.4375 501 l 5
432 23 m 5
 460.96875 52.3330078125 481.21875 96.6669921875 492.75 156 c 132
 504.28125 215.333007812 510.046875 306 510.046875 428 c 5
 540.84375 428 l 5
 540.84375 291.333007812 533.8828125 188.5 519.9609375 119.5 c 132
 506.0390625 50.5 481.78125 -1.6669921875 447.1875 -37 c 5
 432 23 l 5
54.84375 703 m 5
 368.296875 703 l 5
 368.296875 687 l 6
 368.296875 466.333007812 346.4296875 298.666992188 302.6953125 184 c 132
 258.9609375 69.3330078125 190.96875 0.3330078125 98.71875 -23 c 5
 93.234375 48 l 5
 173.390625 69.3330078125 232.734375 126.166992188 271.265625 218.5 c 132
 309.796875 310.833007812 330.75 448 334.125 630 c 5
 54.84375 630 l 5
 54.84375 703 l 5
EndSplineSet
EndChar

StartChar: I
Encoding: 73 73 11
Width: 1000
VWidth: 1000
Flags: HW
LayerCount: 2
Fore
SplineSet
748.5 0 m 5
 748.5 137 l 5
 889.5 137 l 5
 889.5 0 l 5
 748.5 0 l 5
662.25 734 m 5
 655.249023438 568.666992188 635.374023438 435.666992188 602.625 335 c 132
 569.875976562 234.333007812 520.750976562 156.166992188 455.25 100.5 c 132
 389.749023438 44.8330078125 301.249023438 4.6669921875 189.75 -20 c 5
 179.25 52 l 5
 281.25 76.6669921875 361.5 113.833007812 420 163.5 c 132
 478.5 213.166992188 522.375 283.333007812 551.625 374 c 132
 580.875 464.666992188 598.750976562 586.333007812 605.25 739 c 5
 662.25 734 l 5
89.25 695 m 5
 144.75 726 l 5
 187.750976562 606.666992188 226.5 493.333007812 261 386 c 5
 204 357 l 5
 162 486.333007812 123.75 599 89.25 695 c 5
EndSplineSet
EndChar

StartChar: A
Encoding: 65 65 12
Width: 1000
VWidth: 1000
Flags: HW
LayerCount: 2
Fore
SplineSet
99 472 m 5
 793.799804688 472 l 5
 793.799804688 455 l 6
 793.799804688 153 608.999023438 -12 239.400390625 -40 c 5
 228.599609375 30 l 5
 535.19921875 53.3330078125 699.299804688 177.333007812 720.900390625 402 c 5
 99 402 l 5
 99 472 l 5
168.299804688 657 m 5
 168.299804688 727 l 5
 731.700195312 727 l 5
 731.700195312 657 l 5
 168.299804688 657 l 5
EndSplineSet
EndChar

StartChar: B
Encoding: 66 66 13
Width: 1000
VWidth: 1000
Flags: HW
LayerCount: 2
Fore
SplineSet
152.099609375 43 m 5
 342.900390625 61.6669921875 484.650390625 114.5 577.349609375 201.5 c 132
 670.049804688 288.5 731.700195312 427.333007812 762.299804688 618 c 5
 828 606 l 5
 795.000976562 399.333007812 726.75 246.5 623.25 147.5 c 132
 519.75 48.5 366.299804688 -10.6669921875 162.900390625 -30 c 5
 152.099609375 43 l 5
116.099609375 432 m 5
 128.700195312 503 l 5
 233.69921875 483 331.200195312 462.666992188 421.200195312 442 c 5
 408.599609375 370 l 5
 265.80078125 401.333007812 168.299804688 422 116.099609375 432 c 5
154.799804688 678 m 5
 167.400390625 750 l 5
 271.799804688 731.333007812 373.80078125 710.666992188 473.400390625 688 c 5
 460.799804688 617 l 5
 376.200195312 636.333007812 274.19921875 656.666992188 154.799804688 678 c 5
EndSplineSet
EndChar

StartChar: a
Encoding: 97 97 14
Width: 1000
VWidth: 1000
Flags: HW
LayerCount: 2
Fore
SplineSet
748.5 593 m 5
 748.5 730 l 5
 889.5 730 l 5
 889.5 593 l 5
 748.5 593 l 5
82.5 472 m 5
 661.5 472 l 5
 661.5 455 l 6
 661.5 153 507.499023438 -12 199.5 -40 c 5
 190.5 30 l 5
 445.999023438 53.3330078125 582.75 177.333007812 600.75 402 c 5
 82.5 402 l 5
 82.5 472 l 5
140.25 657 m 5
 140.25 727 l 5
 609.75 727 l 5
 609.75 657 l 5
 140.25 657 l 5
EndSplineSet
EndChar

StartChar: b
Encoding: 98 98 15
Width: 1000
VWidth: 1000
Flags: HW
LayerCount: 2
Fore
SplineSet
748.5 593 m 5
 748.5 730 l 5
 889.5 730 l 5
 889.5 593 l 5
 748.5 593 l 5
126.75 43 m 5
 285.75 61.6669921875 403.875 114.5 481.125 201.5 c 132
 558.375 288.5 609.75 427.333007812 635.25 618 c 5
 690 606 l 5
 662.500976562 399.333007812 605.625 246.5 519.375 147.5 c 132
 433.125 48.5 305.25 -10.6669921875 135.75 -30 c 5
 126.75 43 l 5
96.75 432 m 5
 107.25 503 l 5
 194.749023438 483 276 462.666992188 351 442 c 5
 340.5 370 l 5
 221.500976562 401.333007812 140.25 422 96.75 432 c 5
129 678 m 5
 139.5 750 l 5
 226.5 731.333007812 311.500976562 710.666992188 394.5 688 c 5
 384 617 l 5
 313.5 636.333007812 228.499023438 656.666992188 129 678 c 5
EndSplineSet
EndChar

StartChar: J
Encoding: 74 74 16
Width: 1000
VWidth: 1000
Flags: HW
LayerCount: 2
Fore
SplineSet
748.5 0 m 5
 748.5 137 l 5
 889.5 137 l 5
 889.5 0 l 5
 748.5 0 l 5
82.5 472 m 5
 661.5 472 l 5
 661.5 455 l 6
 661.5 153 507.499023438 -12 199.5 -40 c 5
 190.5 30 l 5
 445.999023438 53.3330078125 582.75 177.333007812 600.75 402 c 5
 82.5 402 l 5
 82.5 472 l 5
140.25 657 m 5
 140.25 727 l 5
 609.75 727 l 5
 609.75 657 l 5
 140.25 657 l 5
EndSplineSet
EndChar

StartChar: K
Encoding: 75 75 17
Width: 1000
VWidth: 1000
Flags: HW
LayerCount: 2
Fore
SplineSet
748.5 0 m 5
 748.5 137 l 5
 889.5 137 l 5
 889.5 0 l 5
 748.5 0 l 5
126.75 43 m 5
 285.75 61.6669921875 403.875 114.5 481.125 201.5 c 132
 558.375 288.5 609.75 427.333007812 635.25 618 c 5
 690 606 l 5
 662.500976562 399.333007812 605.625 246.5 519.375 147.5 c 132
 433.125 48.5 305.25 -10.6669921875 135.75 -30 c 5
 126.75 43 l 5
96.75 432 m 5
 107.25 503 l 5
 194.749023438 483 276 462.666992188 351 442 c 5
 340.5 370 l 5
 221.500976562 401.333007812 140.25 422 96.75 432 c 5
129 678 m 5
 139.5 750 l 5
 226.5 731.333007812 311.500976562 710.666992188 394.5 688 c 5
 384 617 l 5
 313.5 636.333007812 228.499023438 656.666992188 129 678 c 5
EndSplineSet
EndChar

StartChar: three
Encoding: 51 51 18
Width: 1000
VWidth: 1000
Flags: HW
LayerCount: 2
Fore
SplineSet
748.5 306 m 5
 748.5 443 l 5
 889.5 443 l 5
 889.5 306 l 5
 748.5 306 l 5
748.5 593 m 5
 748.5 730 l 5
 889.5 730 l 5
 889.5 593 l 5
 748.5 593 l 5
94.5 48 m 1
 97.5 126 l 1
 280.5 117.333007812 465.499023438 90.6669921875 652.5 46 c 1
 645 -32 l 1
 460.000976562 12.6669921875 276.499023438 39.3330078125 94.5 48 c 1
157.5 370 m 1
 161.25 448 l 1
 305.25 440 448.5 419.333007812 591 386 c 1
 582.75 308 l 1
 436.750976562 342 295.000976562 362.666992188 157.5 370 c 1
129.75 661 m 1
 132.75 737 l 1
 300.75 729.666992188 466.000976562 709.666992188 628.5 677 c 1
 621.75 601 l 1
 458.749023438 633 294.75 653 129.75 661 c 1
EndSplineSet
EndChar

StartChar: two
Encoding: 50 50 19
Width: 1000
VWidth: 1000
Flags: HW
LayerCount: 2
Fore
SplineSet
748.5 306 m 5
 748.5 443 l 5
 889.5 443 l 5
 889.5 306 l 5
 748.5 306 l 5
748.5 593 m 5
 748.5 730 l 5
 889.5 730 l 5
 889.5 593 l 5
 748.5 593 l 5
208.5 45 m 1
 315 53.6669921875 402.625976562 91.1669921875 471.375 157.5 c 128
 540.124023438 223.833007812 591.75 321 626.25 449 c 1
 679.5 421 l 1
 597.499023438 120.333007812 424.249023438 -30 159.75 -30 c 2
 147.75 -30 l 1
 147.75 743 l 1
 208.5 743 l 1
 208.5 45 l 1
EndSplineSet
EndChar

StartChar: one
Encoding: 49 49 21
Width: 1000
VWidth: 1000
Flags: HW
LayerCount: 2
Fore
SplineSet
748.5 306 m 5
 748.5 443 l 5
 889.5 443 l 5
 889.5 306 l 5
 748.5 306 l 5
748.5 593 m 5
 748.5 730 l 5
 889.5 730 l 5
 889.5 593 l 5
 748.5 593 l 5
405 702 m 1
 453.75 736 l 1
 479.25 680 504.75 620 530.25 556 c 1
 481.5 524 l 1
 461.500976562 574 436.000976562 633.333007812 405 702 c 1
516 744 m 1
 564.75 779 l 1
 592.750976562 718.333007812 619.000976562 657.666992188 643.5 597 c 1
 594 564 l 1
 573 616 547.000976562 676 516 744 c 1
237.75 757 m 1
 237.75 465 l 1
 375.75 421 515.500976562 363.666992188 657 293 c 1
 638.25 220 l 1
 495.250976562 291.333007812 361.750976562 347 237.75 387 c 1
 237.75 -57 l 1
 177.75 -57 l 1
 177.75 757 l 1
 237.75 757 l 1
EndSplineSet
EndChar
